<?xml version="1.0" encoding="UTF-8"?><svg xmlns="http://www.w3.org/2000/svg" xmlns:xlink="http://www.w3.org/1999/xlink" viewBox="0 0 522.68 602.64"><defs><linearGradient id="linear-gradient" x1="262.49" y1="249.3" x2="262.49" y2="2.74" gradientUnits="userSpaceOnUse"><stop offset="0" stop-color="#f2f2f2"/><stop offset="1" stop-color="#2d6072"/></linearGradient><linearGradient id="linear-gradient-2" x1="261.6" y1="198.58" x2="261.6" y2="-47.98" gradientTransform="translate(523.81 552.75) rotate(-180)" xlink:href="#linear-gradient"/></defs><g id="Layer_1"><polygon points="263.26 2.7 3.93 151.54 3.16 450.56 261.72 600.73 521.06 451.89 521.83 152.87 263.26 2.7" fill="#2d6072"/><path d="m262.98,2.74L3.64,151.58l-.21,86.52c201.36,61.9,301.03-156.43,518.11-85.19L262.98,2.74Z" fill="url(#linear-gradient)"/><path d="m261.72,600.73l259.34-148.84.21-86.52C319.9,303.46,220.24,521.8,3.16,450.56l258.57,150.17Z" fill="url(#linear-gradient-2)"/><g id="caribou"><path d="m475.89,234.33c-1.53-.81-8.91,5.69-21.78,6.19-6.01.23-5.2,38.36-19.41,49.59-6.16,4.86-17.23,5.61-24.65,8.83-2.48,1.07-9.07,9.28-7.67,10.89,9.66,11.14,15.59,11.38,26.24,21.04,4.84,4.39,7.92,26.49,18.07,45.3.35.65,3.46,14.11,2.47,15.84-1.85,3.24-7.51.14-10.89-4.21-1.13-1.45-.99-3.71-1.48-6.44-.87-4.75-3.73-15.48-5.2-19.8-5.57-16.39-6.07-21.6-8.67-22.52-21.53-7.67-33.66-18.13-39.35-23.51-6.52,1.89-8.01,4.18-12.87,3.22-3.95-.78-10.01,12.32-15.35,22.03-.96,1.75-5.03,13.39-7.43,18.07-.54,1.06-12.43,11.11-15.84,12.87-.89.46-10.95,7.03-17.82,19.06-.79,1.4-.84,8.83-1.98,9.16-4.01,1.13-8.09-8.65-7.71-11.24.05-.27.18-.56.4-.87,1.56-2.12.07-3.79,1.12-7.45.33-1.19,27.44-17.7,28.67-20.3,3.75-7.91,4.58-13.1,5.36-14.93,3.58-8.35,9.09-29.22,7.55-29.38-28.88-2.92-36.72-.19-45.79-3.22-3.76-1.25-13.25,27.87-12.87,35.15.3,5.71,38.59,32.86,43.32,37.87,2.49,2.63,12.74,9.52,11.88,11.38-.27.59-3.2,2.72-4.46,2.72-3.45,0-9.45-2.08-11.72-5.53-.94-1.45-2.82-3.52-4.37-5.61-3.17-4.3-10.63-7.72-11.88-9.16-2.17-2.52-42.83-27.99-41.83-32.18,2.5-10.49,10.89-35.64-6.93-41.83-6.14,5.12-19.67,12.55-20.54,12.87-9.66,3.46-22.27,11.31-26.24,13.61-3.29,1.9-3.86,4.15-6.89,5.51-14.15,6.37-36.44,43.49-37.92,46.22-1.1,2.05-6.03,5.14-10.15,13.86-1.93,4.09-9.76-1.86-8.67-6.93,1.98-9.16,9.21-5.9,10.65-10.15,2.74-8.12,8.91-15.84,15.1-24.5,4.44-6.22,14.21-28.28,17.33-29.71,26.49-12.13,29.78-31.47,31.68-36.39,3.55-9.11,1.64-16.46,4.46-21.29,7.92-13.61-23.04-8.76-18.81-14.6,13.61-18.81,32.59-3.59,35.48-5.01,8.13-3.99,17.53-4.79,26.15-6.37,25.26-4.63,42.34-4.19,64.33-1.62,22.8,2.67,30.82-8.76,37.41-7.45,6.03,1.2,27.96,9.07,32.66,5.85s13.86-25.25,18.81-30.94c.49-.99.72-5.05-1.24-5.45-11.69-2.33-21.72-6.27-25.93-17.43-2.28-6,2.31-8.86,3.93-11.9,3.76-7.08-1.42-8.65,1.45-8.5,1.56.08.68,5.05,2.9,3.58.68-.45,2.61-3.22,2.72-5.33.08-1.61-3.22-4.79-1.34-7.63.77-1.15,1.38,2.34,3.07,3.22,2.91,1.51,8.93-12.3,12.99-10.07.75.4-19.51,26.22-20.93,29.87-2.29,5.9.31,14.91,27.15,23.04,3.21.97-12.22-9.86-16.84-15.36-2.15-2.56-3.17-7.54-1.43-12.4,1.27-3.58,7.49-7.21,10.56-9.38,1.93-1.36,11.53-7.3,11.99-7,1.13.72-4.11,2.84-3.24,3.83,1.16,1.32,7.14-3.46,7.95-2.24,2.26,3.4-14.16,4.92-20.75,13.05-3.72,4.6-4.19,7.14-2.34,11.51,3.68,8.66,21.89,16.28,25.54,15.11,6.34-2.02,19.46,1.16,27.03-3.38,2.88-1.72,3.61-7.19,3.77-5.3.16,1.96-.15,3.21,1.36,1.34,4.96-6.12-.33,4.19-2.4,5.78-4.9,3.77-22.64,3.99-21.64,4.17,18.28,3.14,29.96-2.78,27.26.05-3.17,3.33,2.12,3.17.89,3.79-1.7.87-5.46.94-8.54.02-3.29-.96-18.76-.56-18.7-.14,16.9,6.55,39.11,10.65,42.33,18.07,1.93,4.46-6.45,17.98-19.57,11.05h.02Z" fill="#96afb8" stroke="#96afb8" stroke-linejoin="round"/><path d="m159.8,300.91c-4.46,1.48-40.59-5.2-61.14-3.22-20.54,1.98-18.57,3.46-21.29,1.98s-6.26-19.78-21.04-16.09c-3.96.99,13.37,17.08,13.37,18.81s-6.68,6.44-8.16,13.12-.99,30.63-21.78,42.33c-3.96,2.23-15.1,44.31-18.81,47.27-3.71,2.97-3.22,8.16.25,11.38s10.39-7.43,9.66-9.66,6.41-47.86,54.7-63.61c11.38-3.71-9.98,17.82-10.65,22.52s36.39,31.19,39.11,36.63,4.7,4.7,6.44,6.93,8.42,4.21,7.92,1.98-7.92-14.85-10.89-18.07-26.24-19.8-25.99-26.73c.24-6.93,18.81-23.02,20.54-23.51s9.66-2.72,13.61,1.73-.56,24.41-2.23,26.24-3.39,8.25-3.46,11.88-13.66,26.87-17.33,28.36c-2.31.94-.49,6.79,1.48,7.78s5.5-2.67,6.05-4.65,12.78-26.11,15.98-27.78c3.46-1.82,6.93-9.9,7.18-12.62.27-3,7.18-20.05,13.61-23.02,6.44-2.97,19.5,8.62,22.2,11.22,2.47,2.39,6.88,24.88,5.86,27.31s-2.06,7.26-4.29,8.5c-1.73.96.99,9.4,2.23,9.16s9.66-12.13,9.66-15.84-3.99-22.04-3.55-24.34c.49-2.56.08-8.83-5.61-13.29-6.12-4.79-11.14-8.42-11.14-8.42,0,0,4.95-.75,6.68-6.44,2.85-9.37,19.87-9.28,22.77-36.88.49-4.7,13.95-1.95,19.06-2.97,2.47-.49,6.93-6.68,4.95-9.66s-15.59-6.68-17.58-8.91-4.7-7.67-10.89-7.43-3.46-7.18-8.16-7.18-2.97,5.69-2.97,5.69c0,0-3.46-5.2-5.69-4.95s-2.23,13.12,1.73,14.85-7.92,18.07-12.38,19.56h-.02Z" fill="#96afb8" stroke="#96afb8" stroke-linejoin="round"/></g></g><g id="Layer_2"><text transform="translate(268.92 579.24) rotate(-30)" fill="#f2f2f2" font-family="OttomatOT-Bold, &apos;Ottomat OT&apos;" font-size="57" font-weight="700"><tspan x="0" y="0" letter-spacing="-.06em">T</tspan><tspan x="22.91" y="0">uktu</tspan><tspan x="136.4" y="0" letter-spacing="-.08em">T</tspan><tspan x="158.06" y="0">ools</tspan></text><polygon id="outline_hex" points="262.11 2.31 2.77 151.15 2 450.16 260.57 600.33 519.91 451.49 520.67 152.48 262.11 2.31" fill="none" stroke="#2d6072" stroke-miterlimit="10" stroke-width="4"/></g></svg>